# xmcd
#
# Track frame offsets: 
#        150
#        15743
#        27918
#        43022
#        57001
#        71919
#        84983
#        98418
#        110812
#        123783
#        137309
#        151045
#
# Disc length: 2240 seconds
#
# Revision: 0
# Processed by: cddbd v1.5.2PL0 Copyright (c) Steve Scherf et al.
# Submitted via: ExactAudioCopy v1.1
#
DISCID=8b08be0c
DTITLE=Kelvin Jones - Stop The Moment
DYEAR=2015
DGENRE=Pop
TTITLE0=Good Together
TTITLE1=Closer
TTITLE2=As You Wake Up
TTITLE3=We Are More
TTITLE4=In Your Place
TTITLE5=Call You Home
TTITLE6=No More Lies
TTITLE7=Stop The Moment
TTITLE8=Follow You Down
TTITLE9=Track 19
TTITLE10=I Wouldn't Change You
TTITLE11=Even Now
EXTD=
EXTT0=
EXTT1=
EXTT2=
EXTT3=
EXTT4=
EXTT5=
EXTT6=
EXTT7=
EXTT8=
EXTT9=
EXTT10=
EXTT11=
PLAYORDER=
